<?xml version="1.0" standalone="no"?>
<!DOCTYPE svg PUBLIC "-//W3C//DTD SVG 1.1//EN" "http://www.w3.org/Graphics/SVG/1.1/DTD/svg11.dtd" >
<svg xmlns="http://www.w3.org/2000/svg">
<metadata></metadata>
<defs>
<font id="orator_fsregular" horiz-adv-x="999" >
<font-face units-per-em="2048" ascent="1536" descent="-512" />
<missing-glyph horiz-adv-x="500" />
<glyph />
<glyph />
<glyph unicode="&#xd;" />
<glyph unicode=" " />
<glyph unicode="!" d="M395 0v289h189v-289h-189zM395 1366h209l-49 -942h-133z" />
<glyph unicode="&#x22;" d="M324 1366h102l-12 -547h-78zM573 1366h103l-12 -547h-78z" />
<glyph unicode="#" d="M-33 438l27 129h248l43 238h-250l24 129h250l109 588h139l-313 -1698h-140l113 614h-250zM438 -176l312 1698h139l-107 -588h250l-24 -129h-248l-45 -238h250l-23 -129h-250l-114 -614h-140z" />
<glyph unicode="$" d="M125 354l115 82q57 -86 91 -114.5t93 -40.5v370q-123 34 -188.5 108.5t-65.5 180.5q0 101 69.5 176t184.5 98v179h143v-179q165 -20 289 -178l-102 -88q-69 79 -102.5 103t-84.5 32v-333q310 -59 310 -308q0 -120 -84.5 -198t-225.5 -92v-179h-143v179q-175 15 -299 202z M319 936q0 -103 105 -148v299q-48 -15 -76.5 -55.5t-28.5 -95.5zM567 281q72 8 116 50.5t44 106.5q0 142 -160 172v-329z" />
<glyph unicode="%" d="M53 47l678 1188q-49 -16 -94 -16q-53 0 -109 20q19 -62 19 -111q0 -115 -61.5 -186.5t-161.5 -71.5t-162 71.5t-62 186.5q0 114 62.5 185t161.5 71q63 0 112 -28q77 -23 111.5 -29t85.5 -6q138 0 239 61l76 -41l-772 -1359zM223 1128q0 -72 27 -111.5t74 -39.5t73.5 39.5 t26.5 111.5q0 71 -26.5 110.5t-73.5 39.5t-74 -40t-27 -110zM449 238q0 114 62.5 185t160.5 71q100 0 161.5 -71t61.5 -185t-61.5 -185t-161.5 -71q-98 0 -160.5 71t-62.5 185zM571 238q0 -70 27 -110t74 -40t73.5 39.5t26.5 110.5q0 70 -26.5 109.5t-73.5 39.5t-74 -39.5 t-27 -109.5z" />
<glyph unicode="&#x26;" d="M123 293q0 85 41 146t151 143l-67 92q-66 89 -66 198q0 125 75 202t196 77q115 0 191.5 -79.5t76.5 -199.5q0 -100 -44 -163.5t-177 -155.5l200 -272q26 43 39 87t21 113l135 -24q-12 -91 -37 -157.5t-72 -135.5l84 -117l-104 -76l-74 101q-67 -51 -123.5 -71.5 t-124.5 -20.5q-136 0 -228.5 90.5t-92.5 222.5zM266 295q0 -83 52.5 -134.5t136.5 -51.5q89 0 161 69l-223 305q-76 -54 -101.5 -92t-25.5 -96zM315 881q0 -76 54 -150l57 -78l86 64q37 28 59.5 68t22.5 81q0 72 -40 117t-103 45q-61 0 -98.5 -40.5t-37.5 -106.5z" />
<glyph unicode="'" d="M449 1366h102l-12 -547h-78z" />
<glyph unicode="(" d="M311 752q0 235 83 440t235 344l82 -82q-130 -139 -193 -311.5t-63 -390.5q0 -432 256 -703l-82 -84q-152 141 -235 346t-83 441z" />
<glyph unicode=")" d="M291 49q135 151 195.5 317t60.5 386t-60.5 385.5t-195.5 316.5l82 82q152 -139 234.5 -344t82.5 -440q0 -236 -82.5 -441t-234.5 -346z" />
<glyph unicode="*" d="M178 975v180l205 -20l-129 151l139 100l107 -194l106 194l139 -100l-129 -151l205 20v-180l-205 18l129 -149l-139 -99l-106 193l-107 -193l-139 99l129 149zM442 1065q0 -25 16.5 -41t41.5 -16q23 0 40 17t17 40t-17 40t-40 17q-25 0 -41.5 -16t-16.5 -41z" />
<glyph unicode="+" d="M53 623v120h385v390h123v-390h385v-120h-385v-390h-123v390h-385z" />
<glyph unicode="," d="M328 -18q63 43 81.5 90t18.5 166v65h188v-65q0 -113 -58.5 -205.5t-168.5 -153.5z" />
<glyph unicode="-" d="M272 465v137h455v-137h-455z" />
<glyph unicode="." d="M406 0v303h188v-303h-188z" />
<glyph unicode="/" d="M35 23l753 1384l121 -68l-755 -1382z" />
<glyph unicode="0" d="M119 682q0 264 18 377q26 154 121.5 239.5t241.5 85.5q106 0 195.5 -53t127.5 -139q32 -69 45 -182.5t13 -327.5q0 -212 -13 -324.5t-45 -183.5q-38 -86 -127.5 -139t-195.5 -53t-196 53t-128 139q-32 70 -44.5 181.5t-12.5 326.5zM262 682q0 -193 11.5 -298.5 t37.5 -162.5q23 -49 75 -79.5t114 -30.5q61 0 113 30t75 80q26 57 37.5 162.5t11.5 298.5q0 232 -18 356q-38 217 -219 217q-62 0 -113 -29.5t-76 -80.5q-26 -56 -37.5 -162.5t-11.5 -300.5z" />
<glyph unicode="1" d="M113 0v123h346v1075l-252 -94l-43 117l432 163v-1261h293v-123h-776z" />
<glyph unicode="2" d="M119 0v123l520 674q58 74 79 123t21 110q0 100 -60 162.5t-157 62.5q-109 0 -178 -71.5t-88 -202.5l-135 18q64 385 399 385q164 0 264.5 -94.5t100.5 -249.5q0 -150 -131 -319l-461 -598h588v-123h-762z" />
<glyph unicode="3" d="M113 1243v123h755v-123l-376 -387q190 -6 291.5 -96.5t101.5 -253.5q0 -158 -101.5 -286.5t-273.5 -188.5q-120 -43 -379 -49v124q168 3 252.5 19.5t157.5 60.5q94 57 147 141t53 173q0 112 -80 175.5t-223 63.5q-75 0 -159 -16v104l403 416h-569z" />
<glyph unicode="4" d="M113 342l202 1042l136 -28l-175 -891h371v694h137v-694h109v-123h-109v-342h-137v342h-534z" />
<glyph unicode="5" d="M123 -20v124q172 0 267.5 19t166.5 67q82 57 128 139.5t46 174.5q0 106 -65 169.5t-172 63.5q-56 0 -104 -15t-126 -56h-98v700h698v-123h-561v-420q68 26 110.5 34.5t100.5 8.5q158 0 259 -103.5t101 -264.5q0 -141 -85 -265.5t-226 -187.5q-129 -59 -440 -65z" />
<glyph unicode="6" d="M111 672q0 712 407 712q172 0 305 -118l-78 -113q-114 102 -217 102q-137 0 -202.5 -118.5t-69.5 -378.5q75 61 135 85.5t137 24.5q164 0 257.5 -116.5t93.5 -321.5q0 -199 -105 -323.5t-274 -124.5q-205 0 -297 163t-92 527zM256 584q0 -241 58 -357t180 -116 q112 0 176.5 83t64.5 228q0 153 -57.5 235t-163.5 82q-82 0 -158 -51q-32 -20 -63 -47q-37 -29 -37 -35v-22z" />
<glyph unicode="7" d="M160 1243v123h760l-621 -1384l-121 55l545 1206h-563z" />
<glyph unicode="8" d="M109 350q0 122 57 197.5t215 159.5q-128 83 -178.5 156.5t-50.5 176.5q0 148 99.5 246t248.5 98q148 0 247 -98t99 -246q0 -102 -51 -175.5t-179 -157.5q158 -85 215.5 -160t57.5 -197q0 -161 -109.5 -264.5t-279.5 -103.5q-172 0 -281.5 103.5t-109.5 264.5zM252 346 q0 -103 69.5 -169t178.5 -66q107 0 176 66t69 169q0 133 -141 227q-101 67 -104 64q-147 -85 -197.5 -144t-50.5 -147zM295 1034q0 -78 45 -129q22 -32 55 -55q98 -74 105 -70q121 76 161.5 127.5t40.5 126.5q0 100 -55.5 160.5t-146.5 60.5q-92 0 -148.5 -60.5 t-56.5 -160.5z" />
<glyph unicode="9" d="M111 936q0 200 104.5 324t273.5 124q206 0 298 -163t92 -527q0 -712 -408 -712q-172 0 -305 118l80 113q111 -102 215 -102q138 0 203 118t69 379q-75 -61 -135 -85.5t-137 -24.5q-164 0 -257 116t-93 322zM254 942q0 -151 58 -233t165 -82q79 0 158 51q39 27 63 49 q35 31 35 33v22q0 242 -58 357.5t-179 115.5q-113 0 -177.5 -83.5t-64.5 -229.5z" />
<glyph unicode=":" d="M406 0v303h188v-303h-188zM406 582v303h188v-303h-188z" />
<glyph unicode=";" d="M326 -20q66 46 84 92t18 166v65h188v-65q0 -112 -59 -205.5t-168 -153.5zM428 582v303h188v-303h-188z" />
<glyph unicode="&#x3c;" d="M31 600v100l901 402v-144l-719 -307l719 -307v-143z" />
<glyph unicode="=" d="M63 465v129h873v-129h-873zM63 750v129h873v-129h-873z" />
<glyph unicode="&#x3e;" d="M68 201v143l716 307l-716 307v144l901 -402v-100z" />
<glyph unicode="?" d="M127 1008q43 196 137 286t256 90q160 0 257 -95t97 -253q0 -96 -45 -174t-157 -174q-74 -63 -90.5 -95.5t-16.5 -113.5q0 -2 -1 -11.5t-1 -16.5h-143q2 16 2 34q2 49 3 72.5t8 53t14.5 43t28.5 38.5t42 44t64 55q84 72 116.5 125.5t32.5 119.5q0 100 -57 159.5t-152 59.5 q-204 0 -260 -282zM399 0v287h189v-287h-189z" />
<glyph unicode="@" d="M86 553q0 324 132.5 513t359.5 189q173 0 265.5 -97t92.5 -277q0 -70 -2 -208t-2 -206q0 -121 49 -260l-117 -29q-30 99 -33 115q-93 -133 -206 -133q-115 0 -182.5 99.5t-67.5 264.5q0 163 80 268t204 105q64 0 150 -39v16q0 275 -236 275q-167 0 -263.5 -157 t-96.5 -429q0 -287 101.5 -446.5t283.5 -159.5q152 0 299 121l61 -109q-180 -119 -380 -119q-230 0 -361 188t-131 515zM504 510q0 -101 38.5 -163t98.5 -62q44 0 78.5 33t87.5 128q0 48 1 145.5t1 145.5q-52 27 -76 35t-51 8q-82 0 -130 -73.5t-48 -196.5z" />
<glyph unicode="A" d="M72 10l344 1356h166l344 -1356l-133 -35l-107 447h-373l-106 -447zM346 545h307l-153 639z" />
<glyph unicode="B" d="M135 0v123h113v1120h-113v123h363q173 0 266.5 -89t93.5 -255q0 -91 -34.5 -154t-112.5 -110q110 -50 160.5 -132.5t50.5 -215.5q0 -192 -92 -301t-255 -109h-440zM385 123h172q109 0 165 70t56 206q0 148 -60 215.5t-192 67.5h-141v-559zM385 805h131q97 0 148 55 t51 160q0 223 -213 223h-117v-438z" />
<glyph unicode="C" d="M119 684q0 343 104.5 522.5t304.5 179.5q109 0 188.5 -53t145.5 -170l-114 -69q-49 89 -100 126t-122 37q-129 0 -196.5 -145.5t-67.5 -427.5q0 -281 67.5 -427t196.5 -146q136 0 244 172l113 -78q-75 -115 -161 -169t-194 -54q-200 0 -304.5 179.5t-104.5 522.5z" />
<glyph unicode="D" d="M129 0v123h113v1120h-113v123h369q235 0 332.5 -155.5t97.5 -528.5q0 -372 -97.5 -527t-332.5 -155h-369zM379 123h119q109 0 170.5 53t88.5 173t27 333q0 214 -27 334.5t-88.5 173.5t-170.5 53h-119v-1120z" />
<glyph unicode="E" d="M209 0v1366h663v-123h-526v-450h434v-123h-434v-547h526v-123h-663z" />
<glyph unicode="F" d="M248 0v1366h670v-123h-533v-450h446v-123h-446v-670h-137z" />
<glyph unicode="G" d="M129 676q0 334 105 521t294 187q200 0 342 -221l-120 -73q-92 165 -230 165q-120 0 -184 -153.5t-64 -442.5q0 -277 76 -432q28 -55 79 -86.5t112 -31.5q101 0 182 63v412h-254v123h391v-609q-147 -118 -315 -118q-198 0 -306 181t-108 515z" />
<glyph unicode="H" d="M152 0v1366h137v-573h422v573h137v-1366h-137v670h-422v-670h-137z" />
<glyph unicode="I" d="M246 0v123h186v1120h-186v123h508v-123h-185v-1120h185v-123h-508z" />
<glyph unicode="J" d="M109 496h137v-70q0 -165 47.5 -241t150.5 -76q97 0 149 75t52 213v969h137v-940q0 -111 -11 -171t-42 -114q-43 -75 -120 -118t-171 -43q-116 0 -199.5 68t-111.5 185q-18 71 -18 263z" />
<glyph unicode="K" d="M217 0v1366h137v-563h37l381 588l111 -70l-375 -576l448 -702l-114 -70l-441 701h-47v-674h-137z" />
<glyph unicode="L" d="M233 0v1366h138v-1243h561v-123h-699z" />
<glyph unicode="M" d="M100 0l41 1366h162l197 -580l196 580h162l41 -1366h-135l-29 1141l-235 -688l-236 688l-28 -1141h-136z" />
<glyph unicode="N" d="M158 0v1366h157l332 -874q24 -61 78 -275q-6 205 -6 285v864h123v-1366h-158l-330 874q-41 106 -80 277v-59q0 -62 1 -97t1.5 -41t1.5 -9t1 -9q2 -37 2 -72v-864h-123z" />
<glyph unicode="O" d="M121 688q0 380 98 543q43 71 121 115.5t160 44.5q83 0 159.5 -44t120.5 -116q99 -165 99 -543t-99 -545q-43 -71 -120 -115t-160 -44t-161.5 44.5t-119.5 114.5q-52 87 -75 216t-23 329zM264 688q0 -315 53.5 -445t182.5 -130t182 130t53 445q0 71 -1.5 121t-6.5 114.5 t-14.5 109t-27 91t-42 74.5t-61 46t-82.5 18q-129 0 -182.5 -130t-53.5 -444z" />
<glyph unicode="P" d="M217 0v1366h297q183 0 281 -93.5t98 -268.5q0 -177 -91 -286.5t-239 -109.5h-209v-608h-137zM354 731h166q230 0 230 273q0 239 -234 239h-162v-512z" />
<glyph unicode="Q" d="M121 684q0 328 101 515t278 187t278 -187t101 -515q0 -331 -103 -518l101 -119l-105 -86l-80 96q-90 -75 -192 -75q-177 0 -278 187t-101 515zM264 670q0 -269 61 -414t173 -145q62 0 110 45l-176 206l105 91l145 -172q53 148 53 397q0 284 -60 431.5t-177 147.5 q-114 0 -174 -149.5t-60 -437.5z" />
<glyph unicode="R" d="M217 0v1366h297q104 0 158.5 -14t101.5 -52q55 -44 87 -123.5t32 -172.5q0 -146 -61 -244t-177 -139l283 -588l-123 -60l-307 635h-154v-608h-137zM354 731h166q119 0 174.5 66t55.5 207q0 124 -56 181.5t-176 57.5h-164v-512z" />
<glyph unicode="S" d="M154 358l135 21q20 -152 67.5 -210t151.5 -58q96 0 149.5 65.5t53.5 183.5q0 56 -16 101t-49.5 80.5t-65.5 58.5t-84 53q-33 19 -66 39l-33 19q-109 61 -156.5 137.5t-47.5 187.5q0 151 89.5 250.5t225.5 99.5q254 0 319 -311l-133 -20q-43 202 -186 202 q-83 0 -131.5 -58.5t-48.5 -158.5q0 -47 7 -75.5t34.5 -60.5t70.5 -61.5t125 -78.5q163 -97 221 -179t58 -216q0 -179 -92 -283t-250 -104t-241.5 90t-106.5 286z" />
<glyph unicode="T" d="M139 1243v123h719v-123h-287v-1243h-137v1243h-295z" />
<glyph unicode="U" d="M166 383v983h137v-983q0 -142 47 -207t150 -65q104 0 151 64.5t47 207.5v983h138v-983q0 -401 -336 -401q-334 0 -334 401z" />
<glyph unicode="V" d="M78 1354l139 37l283 -1022l282 1022l138 -37l-404 -1381h-35z" />
<glyph unicode="W" d="M74 1364l135 8l57 -600q10 -103 10 -407l13 51q27 110 34 143.5t7 34.5q22 91 43 149l127 342l125 -342q24 -69 61 -225l35 -153q0 304 10 407l57 600l136 -8l-136 -1391h-59l-166 559q-17 55 -63 267q-48 -207 -66 -267l-166 -559h-59z" />
<glyph unicode="X" d="M76 31l356 714l-293 588l127 64l234 -512l233 512l127 -64l-293 -588l357 -714l-123 -64l-299 631l-303 -631z" />
<glyph unicode="Y" d="M78 1339l127 52l297 -693l295 693l127 -52l-355 -800v-539h-137v539z" />
<glyph unicode="Z" d="M98 0l580 1243h-520v123h727l-578 -1243h594v-123h-803z" />
<glyph unicode="[" d="M250 -49v1462h553v-123h-416v-1216h416v-123h-553z" />
<glyph unicode="\" d="M35 1339l119 68l755 -1384l-118 -66z" />
<glyph unicode="]" d="M195 -49v123h415v1216h-415v123h553v-1462h-553z" />
<glyph unicode="^" d="M184 946l250 410h133l250 -410h-141l-176 250l-174 -250h-142z" />
<glyph unicode="_" d="M0 -164h999v-143h-999v143z" />
<glyph unicode="`" d="M297 1294l74 129l362 -206l-55 -91z" />
<glyph unicode="a" d="M76 20l336 1047h176l334 -1047l-134 -47l-100 318h-379l-98 -318zM348 414h303l-151 493z" />
<glyph unicode="b" d="M135 0v123h113v821h-113v123h363q175 0 267.5 -73.5t92.5 -211.5q0 -149 -119 -219q89 -31 136 -97t47 -161q0 -143 -92 -224t-255 -81h-440zM385 123h184q103 0 156 44.5t53 129.5q0 100 -60 145t-192 45h-141v-364zM385 610h145q89 0 138 45.5t49 128.5q0 160 -215 160 h-117v-334z" />
<glyph unicode="c" d="M119 535q0 253 108 401.5t291 148.5q113 0 193 -54t143 -173l-123 -63q-44 83 -95 122t-116 39q-124 0 -191 -112.5t-67 -321.5q0 -192 69 -301.5t189 -109.5q77 0 134 38.5t118 133.5l111 -78q-82 -122 -162.5 -172.5t-192.5 -50.5q-192 0 -300.5 146.5t-108.5 406.5z " />
<glyph unicode="d" d="M129 0v123h113v821h-113v123h383q116 0 189 -28t128 -95q54 -63 76.5 -157t22.5 -252q0 -180 -30.5 -282t-104.5 -167q-56 -47 -118.5 -66.5t-162.5 -19.5h-383zM379 123h127q155 0 216.5 91.5t61.5 320.5q0 228 -61.5 318.5t-216.5 90.5h-127v-821z" />
<glyph unicode="e" d="M209 0v1067h663v-123h-526v-319h434v-123h-434v-379h526v-123h-663z" />
<glyph unicode="f" d="M248 0v1067h670v-123h-533v-319h446v-123h-446v-502h-137z" />
<glyph unicode="g" d="M129 532q0 260 106 406.5t293 146.5q101 0 190 -53t152 -151l-116 -76q-89 151 -234 151q-119 0 -183.5 -111t-64.5 -315t65 -312.5t187 -108.5q108 0 197 57v280h-254v123h391v-471q-68 -55 -156 -86.5t-170 -31.5q-192 0 -297.5 144.5t-105.5 407.5z" />
<glyph unicode="h" d="M152 0v1067h137v-442h422v442h137v-1067h-137v502h-422v-502h-137z" />
<glyph unicode="i" d="M281 0v123h149v821h-149v123h436v-123h-150v-821h150v-123h-436z" />
<glyph unicode="j" d="M109 399h127v-30q0 -134 49 -196t153 -62q100 0 153.5 56.5t53.5 160.5v739h137v-719q0 -91 -11.5 -139t-43.5 -92q-46 -63 -123 -99t-166 -36q-114 0 -195 53.5t-112 150.5q-22 65 -22 213z" />
<glyph unicode="k" d="M217 0v1067h137v-459h52l366 486l105 -82l-357 -449l418 -502l-104 -88l-433 531h-47v-504h-137z" />
<glyph unicode="l" d="M233 0v1067h138v-944h561v-123h-699z" />
<glyph unicode="m" d="M143 0l43 1067h164l172 -463l170 463h164l43 -1067h-129l-29 864l-219 -561l-221 561l-29 -864h-129z" />
<glyph unicode="n" d="M158 0v1067h155l326 -655q30 -61 92 -244q-12 152 -12 256v643h123v-1067h-156l-321 655q-38 75 -97 244q13 -165 13 -258v-641h-123z" />
<glyph unicode="o" d="M121 535q0 258 101 404t278 146q178 0 278.5 -146t100.5 -404q0 -260 -100.5 -406.5t-278.5 -146.5t-278.5 146.5t-100.5 406.5zM264 535q0 -206 60.5 -315t175.5 -109t175 109t60 315q0 204 -60.5 312.5t-174.5 108.5q-115 0 -175.5 -108t-60.5 -313z" />
<glyph unicode="p" d="M217 0v1067h311q101 0 148.5 -10.5t97.5 -42.5q55 -37 87 -100.5t32 -137.5q0 -140 -85 -228.5t-218 -88.5h-236v-459h-137zM354 582h172q118 0 172 46t54 146q0 88 -55 129t-171 41h-172v-362z" />
<glyph unicode="q" d="M121 535q0 258 101 404t278 146q178 0 278.5 -146.5t100.5 -406.5q0 -253 -91 -389l121 -110l-86 -92l-118 108q-94 -67 -205 -67q-178 0 -278.5 146.5t-100.5 406.5zM264 535q0 -206 60.5 -315t175.5 -109q56 0 104 28l-176 162l84 96l172 -159q51 114 51 294 q0 206 -60.5 315t-174.5 109q-115 0 -175.5 -108t-60.5 -313z" />
<glyph unicode="r" d="M193 0v1067h348q84 0 135 -12.5t90 -42.5q51 -36 79.5 -98.5t28.5 -133.5q0 -105 -57.5 -185.5t-159.5 -117.5l261 -432l-119 -72l-273 484h-196v-457h-137zM330 580h164q112 0 174.5 52t62.5 144q0 40 -15 76t-40 55q-27 23 -64.5 30t-126.5 7h-155v-364z" />
<glyph unicode="s" d="M154 299l122 39q25 -115 82.5 -171t151.5 -56q91 0 145 49t54 131q0 75 -38.5 112.5t-174.5 94.5q-139 57 -199 96q-102 64 -102 205q0 127 86.5 206.5t226.5 79.5q250 0 323 -268l-131 -39q-25 95 -71 137.5t-125 42.5q-77 0 -124.5 -40.5t-47.5 -106.5q0 -78 55 -117 q2 -1 7.5 -5t7 -5t7 -4.5t9 -5t10.5 -5t15 -7t19.5 -8.5t26 -11t32.5 -13.5l42 -17.5q166 -68 224.5 -133.5t58.5 -183.5q0 -141 -92 -227t-244 -86q-143 0 -234 81t-122 236z" />
<glyph unicode="t" d="M139 944v123h719v-123h-287v-944h-137v944h-295z" />
<glyph unicode="u" d="M166 315v752h137v-752q0 -107 47.5 -156.5t149.5 -49.5q103 0 150.5 49.5t47.5 156.5v752h138v-752q0 -162 -86.5 -247.5t-249.5 -85.5q-162 0 -248 85.5t-86 247.5z" />
<glyph unicode="v" d="M78 1044l131 50l291 -783l291 783l129 -50l-408 -1071h-25z" />
<glyph unicode="w" d="M76 1081l139 17l64 -510l12 -119l10 -125q22 103 64 213l114 311h39l117 -311q40 -108 63 -213l2 41q4 68 7.5 107.5t7 63.5t4.5 32l63 510l140 -17l-154 -1104h-47l-156 447q-38 109 -65 207q-25 -85 -68 -207l-156 -447h-47z" />
<glyph unicode="x" d="M90 55l330 510l-301 471l125 82l254 -430l254 430l125 -82l-302 -471l330 -510l-121 -82l-286 471l-285 -471z" />
<glyph unicode="y" d="M86 1026l129 68l285 -549l282 549l129 -68l-344 -614v-412h-137v412z" />
<glyph unicode="z" d="M98 0l559 944h-499v123h727l-555 -944h571v-123h-803z" />
<glyph unicode="{" d="M264 559q80 22 116 65.5t36 118.5v385q0 126 72 177.5t245 50.5q-153 -30 -153 -201v-301q0 -127 -10 -168t-48 -76q-22 -21 -38 -28.5t-68 -22.5q94 -26 129 -75.5t35 -153.5v-482q0 -156 155 -196h-51q-145 0 -206.5 58.5t-61.5 195.5v467q0 79 -36 123t-116 63z" />
<glyph unicode="|" d="M420 -299v1792h160v-1792h-160z" />
<glyph unicode="}" d="M264 -348q156 40 156 196v482q0 104 35 153.5t129 75.5q-53 15 -70 23t-37 28q-38 35 -47.5 76t-9.5 168v301q0 171 -154 201q173 2 245.5 -50t72.5 -178v-385q0 -75 36.5 -119.5t114.5 -64.5q-80 -17 -115.5 -61t-35.5 -125v-467q0 -139 -62 -196.5t-213 -57.5h-45z" />
<glyph unicode="~" d="M10 1253q62 116 123 164.5t146 48.5q79 0 235 -80q88 -44 129.5 -57.5t81.5 -13.5q60 0 105 34.5t96 120.5l63 -36q-57 -109 -123 -160t-151 -51q-51 0 -133 30l-152 74q-98 49 -158 49q-58 0 -104 -37.5t-96 -124.5z" />
<glyph unicode="&#xa0;" />
<glyph unicode="&#xa1;" d="M395 -248l27 942h133l49 -942h-209zM395 829v289h189v-289h-189z" />
<glyph unicode="&#xa2;" d="M117 690q0 227 87.5 372t241.5 173v158h136v-156q79 -9 148 -65.5t122 -155.5l-123 -66q-65 123 -147 152v-830q94 23 188 166l111 -78q-73 -108 -141 -158.5t-158 -60.5v-168h-136v172q-158 31 -243.5 173.5t-85.5 371.5zM260 678q0 -161 47.5 -263t138.5 -136v821 q-95 -38 -140.5 -141t-45.5 -281z" />
<glyph unicode="&#xa3;" d="M49 705v122h182q-38 135 -38 224q0 141 100 237t248 96q245 0 358 -237l-123 -45q-44 85 -97.5 122.5t-129.5 37.5q-100 0 -160.5 -61t-60.5 -161q0 -46 6 -77t37 -136h377v-122h-340q43 -162 43 -259q0 -63 -20.5 -122.5t-74.5 -151.5q93 21 133 21q39 0 69 -8.5 t75 -32.5q78 -41 102 -41q32 0 60.5 15t72.5 56l80 -90q-64 -64 -108.5 -88t-100.5 -24q-33 0 -61 8.5t-80 34.5q-68 36 -139 36q-53 0 -99 -16t-131 -63l-75 98l36 61q69 118 96 183.5t27 119.5q0 42 -13.5 122t-31.5 141h-219z" />
<glyph unicode="&#xa4;" d="M33 301l172 170q-60 103 -60 213q0 62 13.5 109t46.5 104l-172 172l82 82l172 -172q113 72 213 72t213 -72l172 172l82 -82l-172 -172q33 -56 46 -103.5t13 -109.5q0 -61 -13.5 -109t-45.5 -104l172 -170l-82 -84l-172 174q-113 -72 -213 -72t-213 72l-172 -174zM283 684 q0 -94 64 -160.5t153 -66.5t153 66.5t64 160.5q0 95 -64 162t-153 67t-153 -67t-64 -162z" />
<glyph unicode="&#xa5;" d="M78 1339l127 52l297 -693l293 693l127 -52l-301 -669h247v-123h-299v-547h-137v547h-301v123h250z" />
<glyph unicode="&#xa6;" d="M453 313h96v-655h-96v655zM453 696v670h96v-670h-96z" />
<glyph unicode="&#xa7;" d="M158 250l139 47q34 -100 90 -147.5t141 -47.5q74 0 123 42t49 106q0 50 -27.5 81t-109.5 72l-143 74q-133 69 -179 122.5t-46 139.5q0 125 102 201q-88 74 -88 182q0 110 88 187t215 77q100 0 178.5 -54.5t128.5 -157.5l-121 -52q-67 146 -190 146q-69 0 -115.5 -41.5 t-46.5 -102.5q0 -52 41 -90q15 -10 107 -57l133 -68q117 -60 163 -113t46 -128q0 -122 -111 -205q60 -47 85.5 -93.5t25.5 -109.5q0 -120 -92 -199t-230 -79q-129 0 -220.5 69t-135.5 199zM336 745q0 -49 24 -73t129 -80l136 -72q67 55 67 133q0 81 -127 144l-168 86 q-61 -67 -61 -138z" />
<glyph unicode="&#xa8;" d="M213 1266q0 56 27.5 92.5t70.5 36.5q41 0 69 -37t28 -92t-28 -92t-69 -37q-43 0 -70.5 36.5t-27.5 92.5zM590 1266q0 56 27.5 92.5t70.5 36.5q41 0 68.5 -37t27.5 -92t-27.5 -92t-68.5 -37q-43 0 -70.5 36.5t-27.5 92.5z" />
<glyph unicode="&#xa9;" d="M-18 684q0 188 69 346t189 250t262 92q141 0 260 -92t187.5 -250t68.5 -346q0 -189 -68.5 -347.5t-187.5 -250.5t-260 -92q-142 0 -262 92t-189 251t-69 347zM68 684q0 -157 59 -292.5t159 -215.5t216 -80q81 0 158.5 44.5t138 120.5t97 187.5t36.5 235.5 q0 126 -39 237.5t-101 186.5t-138 118.5t-152 43.5q-78 0 -155.5 -43.5t-139.5 -118.5t-100.5 -186.5t-38.5 -237.5zM207 690q0 177 85.5 290.5t227.5 113.5q103 0 174 -71t86 -194h-102q-21 162 -156 162q-105 0 -159 -81.5t-54 -217.5q0 -131 56.5 -219t158.5 -88 q65 0 106 44t48 128h102q-10 -121 -83 -197.5t-173 -76.5q-139 0 -228 117t-89 290z" />
<glyph unicode="&#xaa;" d="M172 473v113h655v-113h-655zM201 733l227 633h143l228 -633l-129 -41l-66 189h-209l-65 -189zM432 989h135l-67 199z" />
<glyph unicode="&#xab;" d="M-33 676l518 491l99 -100l-420 -391l420 -393l-99 -103zM426 676l520 491l96 -100l-419 -391l419 -393l-96 -103z" />
<glyph unicode="&#xac;" d="M55 459v88h887v-547h-96v459h-791z" />
<glyph unicode="&#xad;" d="M272 465v137h455v-137h-455z" />
<glyph unicode="&#xae;" d="M90 956q0 169 120.5 289.5t289.5 120.5q170 0 289.5 -120t119.5 -290q0 -169 -120 -289t-289 -120t-289.5 120t-120.5 289zM178 956q0 -136 94 -231.5t228 -95.5t227.5 95.5t93.5 231.5q0 135 -94 231.5t-227 96.5q-134 0 -228 -96t-94 -232zM367 737v451h149 q77 0 118.5 -32.5t41.5 -92.5q0 -76 -82 -113l90 -213h-88l-78 191h-67v-191h-84zM451 987h59q82 0 82 78q0 63 -78 63h-63v-141z" />
<glyph unicode="&#xaf;" d="M205 1196v127h588v-127h-588z" />
<glyph unicode="&#xb0;" d="M186 1081q0 129 92.5 221.5t221.5 92.5q130 0 222.5 -92.5t92.5 -221.5q0 -131 -92.5 -223t-222.5 -92q-129 0 -221.5 92.5t-92.5 222.5zM326 1081q0 -84 51 -142t123 -58q74 0 125 58t51 142q0 83 -51 141t-125 58q-72 0 -123 -58t-51 -141z" />
<glyph unicode="&#xb1;" d="M53 37v121h893v-121h-893zM53 623v120h385v390h123v-390h385v-120h-385v-369h-123v369h-385z" />
<glyph unicode="&#xb2;" d="M272 1184q20 114 78.5 167.5t163.5 53.5q97 0 157 -50.5t60 -133.5q0 -81 -76 -168l-221 -254h295v-99h-455v86l287 330q29 32 39 52.5t10 45.5q0 41 -26 66t-70 25q-56 0 -86 -33t-39 -103z" />
<glyph unicode="&#xb3;" d="M268 1296v97h453v-84l-178 -162q186 -35 186 -186q0 -82 -59.5 -148.5t-159.5 -97.5q-63 -20 -231 -25v98q112 3 153 9.5t80 27.5q44 25 70 60.5t26 72.5q0 46 -37 71.5t-104 25.5q-45 0 -109 -13v82l189 172h-279z" />
<glyph unicode="&#xb4;" d="M297 1217l362 206l74 -129l-381 -168z" />
<glyph unicode="&#xb5;" d="M166 -307v1374h137v-752q0 -107 47.5 -156.5t149.5 -49.5q103 0 150.5 49.5t47.5 156.5v752h138v-752q0 -162 -86.5 -247.5t-249.5 -85.5q-118 0 -197 45v-334h-137z" />
<glyph unicode="&#xb6;" d="M47 997q0 106 40 187.5t112 122.5q54 30 114 39.5t201 9.5h440v-62h-18q-65 0 -82.5 -23.5t-17.5 -111.5v-1098q0 -88 17.5 -111.5t82.5 -23.5h18v-61h-579v61h16q66 0 84.5 24t18.5 111v580q-31 -2 -66 -2q-180 0 -280.5 94.5t-100.5 263.5zM600 -74h129v1368h-129 v-1368z" />
<glyph unicode="&#xb7;" d="M408 416v221h186v-221h-186z" />
<glyph unicode="&#xb8;" d="M322 -330l40 103q91 -39 152 -39q31 0 48.5 11t17.5 30q0 32 -36.5 45.5t-140.5 19.5l70 187h121l-37 -113q83 -9 122.5 -44.5t39.5 -100.5q0 -64 -55.5 -110t-133.5 -46q-77 0 -208 57z" />
<glyph unicode="&#xb9;" d="M305 1315l281 96v-614h127v-97h-396v97h152v469l-125 -41z" />
<glyph unicode="&#xba;" d="M172 473v113h655v-113h-655zM236 1040q0 157 70.5 247.5t193.5 90.5t193.5 -90t70.5 -248q0 -157 -70.5 -247.5t-193.5 -90.5t-193.5 90.5t-70.5 247.5zM371 1040q0 -109 33 -167t96 -58t96 57.5t33 167.5t-33 168t-96 58t-96 -58t-33 -168z" />
<glyph unicode="&#xbb;" d="M-41 283l420 393l-420 391l96 100l520 -491l-520 -496zM418 283l420 393l-420 391l98 100l518 -491l-520 -496z" />
<glyph unicode="&#xbc;" d="M-37 1315l281 96v-614h127v-97h-396v97h152v469l-125 -41zM59 29l772 1362l109 -54l-772 -1360zM573 164l119 543l117 -23l-94 -424h151v334h117v-334h57v-96h-57v-164h-117v164h-293z" />
<glyph unicode="&#xbd;" d="M-16 1315l280 96v-614h127v-97h-395v97h151v469l-124 -41zM74 29l770 1362l110 -54l-772 -1360zM578 483q20 115 78 168.5t163 53.5q97 0 157 -51t60 -134q0 -82 -75 -168l-222 -254h295v-98h-454v86l286 330q29 32 39 52.5t10 45.5q0 41 -26 65.5t-70 24.5 q-56 0 -86 -32.5t-39 -102.5z" />
<glyph unicode="&#xbe;" d="M-39 1296v97h453v-84l-178 -162q186 -35 186 -186q0 -82 -59.5 -148.5t-159.5 -97.5q-63 -20 -232 -25v98q113 3 154 9.5t80 27.5q44 25 70 60.5t26 72.5q0 46 -37 71.5t-104 25.5q-45 0 -109 -13v82l189 172h-279zM59 29l770 1362l109 -54l-770 -1360zM571 164l119 543 l117 -23l-94 -424h151v334h117v-334h59v-96h-59v-164h-117v164h-293z" />
<glyph unicode="&#xbf;" d="M127 82q0 97 44.5 173.5t158.5 174.5q73 63 89.5 95t16.5 114v29h144v-35q0 -47 -0.5 -72t-8.5 -53.5t-14 -41.5t-30 -39.5t-42 -42.5t-65 -56q-84 -72 -117 -126t-33 -120q0 -100 57 -159.5t152 -59.5q205 0 258 282l137 -34q-44 -197 -138 -287t-255 -90 q-160 0 -257 95t-97 253zM414 831v287h188v-287h-188z" />
<glyph unicode="&#xc0;" d="M72 10l344 1356h166l344 -1356l-133 -35l-107 447h-373l-106 -447zM272 1657l70 80l303 -246l-43 -57zM346 545h307l-153 639z" />
<glyph unicode="&#xc1;" d="M72 10l344 1356h166l344 -1356l-133 -35l-107 447h-373l-106 -447zM297 1516l362 204l74 -127l-381 -170zM346 545h307l-153 639z" />
<glyph unicode="&#xc2;" d="M72 10l344 1356h166l344 -1356l-133 -35l-107 447h-373l-106 -447zM193 1501l309 209l309 -209l-49 -74l-260 127l-260 -127zM346 545h307l-153 639z" />
<glyph unicode="&#xc3;" d="M72 10l344 1356h166l344 -1356l-133 -35l-107 447h-373l-106 -447zM154 1425q53 133 99 182.5t118 49.5q34 0 62 -11t69 -42l49 -37q54 -41 86 -41q34 0 53.5 28t42.5 111l117 -35q-41 -136 -85.5 -186.5t-119.5 -50.5q-71 0 -127 43l-69 53q-47 35 -78 35 q-32 0 -53.5 -28.5t-53.5 -115.5zM346 545h307l-153 639z" />
<glyph unicode="&#xc4;" d="M72 10l344 1356h166l344 -1356l-133 -35l-107 447h-373l-106 -447zM213 1563q0 56 27.5 92.5t70.5 36.5q41 0 69 -37t28 -92t-28 -92t-69 -37q-43 0 -70.5 36.5t-27.5 92.5zM346 545h307l-153 639zM590 1563q0 56 27.5 92.5t70.5 36.5q41 0 68.5 -37t27.5 -92t-27.5 -92 t-68.5 -37q-43 0 -70.5 36.5t-27.5 92.5z" />
<glyph unicode="&#xc5;" d="M72 10l344 1356h166l344 -1356l-133 -35l-107 447h-373l-106 -447zM322 1602q0 68 54 120t124 52q75 0 125.5 -51.5t50.5 -127.5q0 -75 -51 -126.5t-125 -51.5q-75 0 -126.5 54t-51.5 131zM346 545h307l-153 639zM403 1599q0 -43 28 -71.5t69 -28.5q38 0 66 28t28 68 q0 39 -27.5 67.5t-66.5 29.5q-38 2 -67.5 -26.5t-29.5 -66.5z" />
<glyph unicode="&#xc6;" d="M-27 10l344 1356h611v-123h-324v-450h299v-123h-299v-547h324v-123h-453v422h-252l-108 -447zM250 545h225v698h-61z" />
<glyph unicode="&#xc7;" d="M119 684q0 343 104.5 522.5t304.5 179.5q108 0 189 -53t145 -168l-114 -71q-49 89 -100 126t-122 37q-129 0 -196.5 -145.5t-67.5 -427.5q0 -281 67.5 -427t196.5 -146q139 0 244 174l113 -80q-67 -104 -136.5 -154t-166.5 -65l-23 -70q83 -9 122.5 -44.5t39.5 -100.5 q0 -64 -55.5 -110t-133.5 -46t-208 55l40 105q89 -39 152 -39q31 0 48.5 11t17.5 30q0 32 -36.5 45.5t-140.5 19.5l54 146q-166 34 -252 210t-86 486z" />
<glyph unicode="&#xc8;" d="M209 0v1366h663v-123h-526v-450h434v-123h-434v-547h526v-123h-663zM313 1657l70 80l303 -246l-43 -57z" />
<glyph unicode="&#xc9;" d="M209 0v1366h663v-123h-526v-450h434v-123h-434v-547h526v-123h-663zM338 1516l362 204l74 -127l-381 -170z" />
<glyph unicode="&#xca;" d="M209 0v1366h663v-123h-526v-450h434v-123h-434v-547h526v-123h-663zM236 1501l309 209l309 -209l-49 -74l-260 127l-260 -127z" />
<glyph unicode="&#xcb;" d="M209 0v1366h663v-123h-526v-450h434v-123h-434v-547h526v-123h-663zM254 1563q0 56 27.5 92.5t70.5 36.5q41 0 69 -37t28 -92t-28 -92t-69 -37q-43 0 -70.5 36.5t-27.5 92.5zM631 1563q0 56 27.5 92.5t70.5 36.5q41 0 68.5 -37t27.5 -92t-27.5 -92t-68.5 -37 q-43 0 -70.5 36.5t-27.5 92.5z" />
<glyph unicode="&#xcc;" d="M246 0v123h186v1120h-186v123h508v-123h-185v-1120h185v-123h-508zM272 1657l70 80l303 -246l-43 -57z" />
<glyph unicode="&#xcd;" d="M246 0v123h186v1120h-186v123h508v-123h-185v-1120h185v-123h-508zM297 1516l362 204l74 -127l-381 -170z" />
<glyph unicode="&#xce;" d="M193 1501l309 209l309 -209l-49 -74l-260 127l-260 -127zM246 0v123h186v1120h-186v123h508v-123h-185v-1120h185v-123h-508z" />
<glyph unicode="&#xcf;" d="M213 1563q0 56 27.5 92.5t70.5 36.5q41 0 69 -37t28 -92t-28 -92t-69 -37q-43 0 -70.5 36.5t-27.5 92.5zM246 0v123h186v1120h-186v123h508v-123h-185v-1120h185v-123h-508zM590 1563q0 56 27.5 92.5t70.5 36.5q41 0 68.5 -37t27.5 -92t-27.5 -92t-68.5 -37 q-43 0 -70.5 36.5t-27.5 92.5z" />
<glyph unicode="&#xd0;" d="M129 0v123h113v547h-103v123h103v450h-113v123h369q157 0 250 -68t135.5 -216t42.5 -400q0 -372 -97.5 -527t-330.5 -155h-369zM379 123h119q108 0 169 53t88 173t27 333q0 214 -27 334.5t-88 173.5t-169 53h-119v-450h182v-123h-182v-547z" />
<glyph unicode="&#xd1;" d="M154 1425q53 133 99 182.5t118 49.5q34 0 62 -11t69 -42l49 -37q54 -41 86 -41q34 0 53.5 28t42.5 111l117 -35q-41 -136 -85.5 -186.5t-119.5 -50.5q-71 0 -127 43l-69 53q-47 35 -78 35q-32 0 -53.5 -28.5t-53.5 -115.5zM158 0v1366h157l332 -874q24 -61 78 -275 q-6 205 -6 285v864h123v-1366h-158l-330 874q-41 106 -80 277v-59q0 -62 1 -97t1.5 -41t1.5 -9t1 -9q2 -37 2 -72v-864h-123z" />
<glyph unicode="&#xd2;" d="M121 688q0 380 98 543q43 71 121 115.5t160 44.5q83 0 159.5 -44t120.5 -116q99 -165 99 -543t-99 -545q-43 -71 -120 -115t-160 -44t-161.5 44.5t-119.5 114.5q-52 87 -75 216t-23 329zM264 688q0 -315 53.5 -445t182.5 -130t182 130t53 445q0 71 -1.5 121t-6.5 114.5 t-14.5 109t-27 91t-42 74.5t-61 46t-82.5 18q-129 0 -182.5 -130t-53.5 -444zM272 1657l70 80l303 -246l-43 -57z" />
<glyph unicode="&#xd3;" d="M121 688q0 380 98 543q43 71 121 115.5t160 44.5q83 0 159.5 -44t120.5 -116q99 -165 99 -543t-99 -545q-43 -71 -120 -115t-160 -44t-161.5 44.5t-119.5 114.5q-52 87 -75 216t-23 329zM264 688q0 -315 53.5 -445t182.5 -130t182 130t53 445q0 71 -1.5 121t-6.5 114.5 t-14.5 109t-27 91t-42 74.5t-61 46t-82.5 18q-129 0 -182.5 -130t-53.5 -444zM297 1516l362 204l74 -127l-381 -170z" />
<glyph unicode="&#xd4;" d="M121 688q0 380 98 543q43 71 121 115.5t160 44.5q83 0 159.5 -44t120.5 -116q99 -165 99 -543t-99 -545q-43 -71 -120 -115t-160 -44t-161.5 44.5t-119.5 114.5q-52 87 -75 216t-23 329zM193 1501l309 209l309 -209l-49 -74l-260 127l-260 -127zM264 688 q0 -315 53.5 -445t182.5 -130t182 130t53 445q0 71 -1.5 121t-6.5 114.5t-14.5 109t-27 91t-42 74.5t-61 46t-82.5 18q-129 0 -182.5 -130t-53.5 -444z" />
<glyph unicode="&#xd5;" d="M121 688q0 380 98 543q43 71 121 115.5t160 44.5q83 0 159.5 -44t120.5 -116q99 -165 99 -543t-99 -545q-43 -71 -120 -115t-160 -44t-161.5 44.5t-119.5 114.5q-52 87 -75 216t-23 329zM154 1425q53 133 99 182.5t118 49.5q34 0 62 -11t69 -42l49 -37q54 -41 86 -41 q34 0 53.5 28t42.5 111l117 -35q-41 -136 -85.5 -186.5t-119.5 -50.5q-71 0 -127 43l-69 53q-47 35 -78 35q-32 0 -53.5 -28.5t-53.5 -115.5zM264 688q0 -315 53.5 -445t182.5 -130t182 130t53 445q0 71 -1.5 121t-6.5 114.5t-14.5 109t-27 91t-42 74.5t-61 46t-82.5 18 q-129 0 -182.5 -130t-53.5 -444z" />
<glyph unicode="&#xd6;" d="M121 688q0 380 98 543q43 71 121 115.5t160 44.5q83 0 159.5 -44t120.5 -116q99 -165 99 -543t-99 -545q-43 -71 -120 -115t-160 -44t-161.5 44.5t-119.5 114.5q-52 87 -75 216t-23 329zM213 1563q0 56 27.5 92.5t70.5 36.5q41 0 69 -37t28 -92t-28 -92t-69 -37 q-43 0 -70.5 36.5t-27.5 92.5zM264 688q0 -315 53.5 -445t182.5 -130t182 130t53 445q0 71 -1.5 121t-6.5 114.5t-14.5 109t-27 91t-42 74.5t-61 46t-82.5 18q-129 0 -182.5 -130t-53.5 -444zM590 1563q0 56 27.5 92.5t70.5 36.5q41 0 68.5 -37t27.5 -92t-27.5 -92 t-68.5 -37q-43 0 -70.5 36.5t-27.5 92.5z" />
<glyph unicode="&#xd7;" d="M125 391l289 289l-289 289l88 88l287 -289l288 289l84 -84l-288 -289l288 -289l-88 -86l-286 289l-289 -289z" />
<glyph unicode="&#xd8;" d="M78 49l108 199q-51 142 -51 438q0 197 23.5 327t74.5 218q43 72 120.5 116t160.5 44q136 0 238 -105l65 117l107 -55l-99 -179q68 -165 68 -483q0 -377 -98 -543q-43 -72 -120 -115.5t-161 -43.5q-75 0 -146 36t-118 99l-66 -123zM279 711q0 -163 10 -275l395 723 q-58 103 -170 103q-126 0 -180.5 -128t-54.5 -423zM326 256q29 -74 75 -108.5t113 -34.5q126 0 181 128t55 423q0 165 -17 335z" />
<glyph unicode="&#xd9;" d="M166 383v983h137v-983q0 -142 47 -207t150 -65q104 0 151 64.5t47 207.5v983h138v-983q0 -401 -336 -401q-334 0 -334 401zM274 1657l70 80l303 -246l-43 -57z" />
<glyph unicode="&#xda;" d="M166 383v983h137v-983q0 -142 47 -207t150 -65q104 0 151 64.5t47 207.5v983h138v-983q0 -401 -336 -401q-334 0 -334 401zM297 1516l362 204l74 -127l-381 -170z" />
<glyph unicode="&#xdb;" d="M166 383v983h137v-983q0 -142 47 -207t150 -65q104 0 151 64.5t47 207.5v983h138v-983q0 -401 -336 -401q-334 0 -334 401zM195 1501l309 209l309 -209l-49 -74l-260 127l-260 -127z" />
<glyph unicode="&#xdc;" d="M166 383v983h137v-983q0 -142 47 -207t150 -65q104 0 151 64.5t47 207.5v983h138v-983q0 -401 -336 -401q-334 0 -334 401zM215 1563q0 56 27.5 92.5t70.5 36.5q41 0 69 -37t28 -92t-28 -92t-69 -37q-43 0 -70.5 36.5t-27.5 92.5zM592 1563q0 56 27.5 92.5t70.5 36.5 q41 0 68.5 -37t27.5 -92t-27.5 -92t-68.5 -37q-43 0 -70.5 36.5t-27.5 92.5z" />
<glyph unicode="&#xdd;" d="M78 1339l127 52l297 -693l295 693l127 -52l-355 -800v-539h-137v539zM348 1516l363 204l73 -127l-381 -170z" />
<glyph unicode="&#xde;" d="M217 0v1366h137v-205h160q183 0 281 -93.5t98 -268.5q0 -177 -91 -286.5t-239 -109.5h-209v-403h-137zM354 526h166q230 0 230 273q0 239 -234 239h-162v-512z" />
<glyph unicode="&#xdf;" d="M195 0v858q0 33 18.5 70.5t53.5 73.5t96.5 59.5t136.5 23.5q127 0 203.5 -72t76.5 -190q0 -71 -28 -133t-84 -94q93 -25 145.5 -106t52.5 -181q0 -65 -17 -119t-45 -88.5t-64.5 -58t-74 -33.5t-75.5 -10h-166v123h135q164 0 164 180q0 205 -219 205v123q64 9 98.5 59 t34.5 119q0 147 -152 147q-43 0 -72.5 -11.5t-45 -27.5t-24 -44.5t-10 -51t-1.5 -59.5v-762h-137z" />
<glyph unicode="&#xe0;" d="M76 20l336 1047h176l334 -1047l-134 -47l-100 318h-379l-98 -318zM297 1294l74 129l362 -206l-55 -91zM348 414h303l-151 493z" />
<glyph unicode="&#xe1;" d="M76 20l336 1047h176l334 -1047l-134 -47l-100 318h-379l-98 -318zM297 1217l362 206l74 -129l-381 -168zM348 414h303l-151 493z" />
<glyph unicode="&#xe2;" d="M76 20l336 1047h176l334 -1047l-134 -47l-100 318h-379l-98 -318zM193 1202l309 209l309 -209l-49 -74l-260 127l-260 -127zM348 414h303l-151 493z" />
<glyph unicode="&#xe3;" d="M76 20l336 1047h176l334 -1047l-134 -47l-100 318h-379l-98 -318zM154 1126q53 133 99 182.5t118 49.5q59 0 131 -53l49 -37q55 -41 86 -41q34 0 53.5 28t42.5 111l117 -35q-41 -136 -85.5 -186.5t-119.5 -50.5q-71 0 -127 43l-69 53q-47 35 -78 35q-32 0 -53.5 -28.5 t-53.5 -115.5zM348 414h303l-151 493z" />
<glyph unicode="&#xe4;" d="M76 20l336 1047h176l334 -1047l-134 -47l-100 318h-379l-98 -318zM213 1266q0 56 27.5 92.5t70.5 36.5q41 0 69 -37t28 -92t-28 -92t-69 -37q-43 0 -70.5 36.5t-27.5 92.5zM348 414h303l-151 493zM590 1266q0 56 27.5 92.5t70.5 36.5q41 0 68.5 -37t27.5 -92t-27.5 -92 t-68.5 -37q-43 0 -70.5 36.5t-27.5 92.5z" />
<glyph unicode="&#xe5;" d="M76 20l336 1047h176l334 -1047l-134 -47l-100 318h-379l-98 -318zM322 1292q0 68 54 120t124 52q75 0 125.5 -51t50.5 -127q0 -75 -51 -126.5t-125 -51.5q-75 0 -126.5 53.5t-51.5 130.5zM348 414h303l-151 493zM403 1290q0 -43 28 -71.5t69 -28.5q38 0 66 28t28 68 q0 38 -27 66.5t-67 29.5q-38 2 -67.5 -26t-29.5 -66z" />
<glyph unicode="&#xe6;" d="M-33 23l336 1044h680v-123h-365v-319h297v-123h-297v-379h365v-123h-502v291h-280l-99 -318zM240 414h241v530h-86z" />
<glyph unicode="&#xe7;" d="M119 535q0 252 108 401t291 149q113 0 193 -54t143 -173l-123 -63q-44 83 -95 122t-116 39q-124 0 -191 -112.5t-67 -321.5q0 -192 69 -301.5t189 -109.5q77 0 134 38.5t118 133.5l111 -78q-72 -110 -139 -158.5t-164 -62.5l-23 -70q83 -9 122.5 -44.5t39.5 -100.5 q0 -64 -55.5 -110t-133.5 -46q-77 0 -208 57l40 105q87 -41 152 -41q31 0 48.5 11.5t17.5 31.5q0 32 -36 44.5t-141 18.5l54 146q-163 31 -250.5 173t-87.5 376z" />
<glyph unicode="&#xe8;" d="M209 0v1067h663v-123h-526v-319h434v-123h-434v-379h526v-123h-663zM338 1294l74 129l362 -206l-55 -91z" />
<glyph unicode="&#xe9;" d="M209 0v1067h663v-123h-526v-319h434v-123h-434v-379h526v-123h-663zM338 1217l362 206l74 -129l-381 -168z" />
<glyph unicode="&#xea;" d="M209 0v1067h663v-123h-526v-319h434v-123h-434v-379h526v-123h-663zM236 1202l309 209l309 -209l-49 -74l-260 127l-260 -127z" />
<glyph unicode="&#xeb;" d="M209 0v1067h663v-123h-526v-319h434v-123h-434v-379h526v-123h-663zM254 1266q0 56 27.5 92.5t70.5 36.5q41 0 69 -37t28 -92t-28 -92t-69 -37q-43 0 -70.5 36.5t-27.5 92.5zM631 1266q0 56 27.5 92.5t70.5 36.5q41 0 68.5 -37t27.5 -92t-27.5 -92t-68.5 -37 q-43 0 -70.5 36.5t-27.5 92.5z" />
<glyph unicode="&#xec;" d="M281 0v123h149v821h-149v123h436v-123h-150v-821h150v-123h-436zM297 1294l74 129l362 -206l-55 -91z" />
<glyph unicode="&#xed;" d="M281 0v123h149v821h-149v123h436v-123h-150v-821h150v-123h-436zM297 1217l362 206l74 -129l-381 -168z" />
<glyph unicode="&#xee;" d="M193 1202l309 209l309 -209l-49 -74l-260 127l-260 -127zM281 0v123h149v821h-149v123h436v-123h-150v-821h150v-123h-436z" />
<glyph unicode="&#xef;" d="M213 1266q0 56 27.5 92.5t70.5 36.5q41 0 69 -37t28 -92t-28 -92t-69 -37q-43 0 -70.5 36.5t-27.5 92.5zM281 0v123h149v821h-149v123h436v-123h-150v-821h150v-123h-436zM590 1266q0 56 27.5 92.5t70.5 36.5q41 0 68.5 -37t27.5 -92t-27.5 -92t-68.5 -37 q-43 0 -70.5 36.5t-27.5 92.5z" />
<glyph unicode="&#xf0;" d="M123 643v131h117v170h-113v123h383q129 0 210.5 -39t133.5 -127q70 -117 70 -369q0 -178 -31 -279.5t-105 -166.5q-56 -47 -118 -66.5t-160 -19.5h-383v123h113v520h-117zM377 123h125q155 0 216.5 90.5t61.5 318.5q0 229 -61.5 320.5t-216.5 91.5h-125v-170h239v-131 h-239v-520z" />
<glyph unicode="&#xf1;" d="M154 1126q53 133 99 182.5t118 49.5q59 0 131 -53l49 -37q55 -41 86 -41q34 0 53.5 28t42.5 111l117 -35q-41 -136 -85.5 -186.5t-119.5 -50.5q-71 0 -127 43l-69 53q-47 35 -78 35q-32 0 -53.5 -28.5t-53.5 -115.5zM158 0v1067h155l326 -655q30 -61 92 -244 q-12 152 -12 256v643h123v-1067h-156l-321 655q-38 75 -97 244q13 -165 13 -258v-641h-123z" />
<glyph unicode="&#xf2;" d="M121 535q0 258 101 404t278 146q178 0 278.5 -146t100.5 -404q0 -260 -100.5 -406.5t-278.5 -146.5t-278.5 146.5t-100.5 406.5zM264 535q0 -206 60.5 -315t175.5 -109t175 109t60 315q0 204 -60.5 312.5t-174.5 108.5q-115 0 -175.5 -108t-60.5 -313zM297 1294l74 129 l362 -206l-55 -91z" />
<glyph unicode="&#xf3;" d="M121 535q0 258 101 404t278 146q178 0 278.5 -146t100.5 -404q0 -260 -100.5 -406.5t-278.5 -146.5t-278.5 146.5t-100.5 406.5zM264 535q0 -206 60.5 -315t175.5 -109t175 109t60 315q0 204 -60.5 312.5t-174.5 108.5q-115 0 -175.5 -108t-60.5 -313zM297 1217l362 206 l74 -129l-381 -168z" />
<glyph unicode="&#xf4;" d="M121 535q0 258 101 404t278 146q178 0 278.5 -146t100.5 -404q0 -260 -100.5 -406.5t-278.5 -146.5t-278.5 146.5t-100.5 406.5zM193 1202l309 209l309 -209l-49 -74l-260 127l-260 -127zM264 535q0 -206 60.5 -315t175.5 -109t175 109t60 315q0 204 -60.5 312.5 t-174.5 108.5q-115 0 -175.5 -108t-60.5 -313z" />
<glyph unicode="&#xf5;" d="M121 535q0 258 101 404t278 146q178 0 278.5 -146t100.5 -404q0 -260 -100.5 -406.5t-278.5 -146.5t-278.5 146.5t-100.5 406.5zM154 1126q53 133 99 182.5t118 49.5q59 0 131 -53l49 -37q55 -41 86 -41q34 0 53.5 28t42.5 111l117 -35q-41 -136 -85.5 -186.5 t-119.5 -50.5q-71 0 -127 43l-69 53q-47 35 -78 35q-32 0 -53.5 -28.5t-53.5 -115.5zM264 535q0 -206 60.5 -315t175.5 -109t175 109t60 315q0 204 -60.5 312.5t-174.5 108.5q-115 0 -175.5 -108t-60.5 -313z" />
<glyph unicode="&#xf6;" d="M121 535q0 258 101 404t278 146q178 0 278.5 -146t100.5 -404q0 -260 -100.5 -406.5t-278.5 -146.5t-278.5 146.5t-100.5 406.5zM213 1266q0 56 27.5 92.5t70.5 36.5q41 0 69 -37t28 -92t-28 -92t-69 -37q-43 0 -70.5 36.5t-27.5 92.5zM264 535q0 -206 60.5 -315 t175.5 -109t175 109t60 315q0 204 -60.5 312.5t-174.5 108.5q-115 0 -175.5 -108t-60.5 -313zM590 1266q0 56 27.5 92.5t70.5 36.5q41 0 68.5 -37t27.5 -92t-27.5 -92t-68.5 -37q-43 0 -70.5 36.5t-27.5 92.5z" />
<glyph unicode="&#xf7;" d="M53 623v120h893v-120h-893zM397 360q0 37 31 65t72 28q40 0 68 -29t28 -70q0 -40 -29 -70t-67 -30q-44 0 -73.5 30t-29.5 76zM397 1022q0 38 31 66t72 28q40 0 68 -28.5t28 -69.5q0 -40 -29 -70t-67 -30q-44 0 -73.5 30t-29.5 74z" />
<glyph unicode="&#xf8;" d="M121 532q0 260 100.5 406.5t278.5 146.5q111 0 196 -61l43 78l103 -58l-60 -112q97 -151 97 -397q0 -260 -100.5 -406.5t-278.5 -146.5q-115 0 -201 65l-43 -80l-104 56l63 116q-94 146 -94 393zM264 532q0 -138 31 -243l338 616q-54 51 -133 51q-115 0 -175.5 -109 t-60.5 -315zM362 164q59 -53 138 -53q114 0 174.5 108.5t60.5 312.5q0 146 -35 252z" />
<glyph unicode="&#xf9;" d="M166 315v752h137v-752q0 -107 47.5 -156.5t149.5 -49.5q103 0 150.5 49.5t47.5 156.5v752h138v-752q0 -162 -86.5 -247.5t-249.5 -85.5q-162 0 -248 85.5t-86 247.5zM297 1294l74 129l362 -206l-55 -91z" />
<glyph unicode="&#xfa;" d="M166 315v752h137v-752q0 -107 47.5 -156.5t149.5 -49.5q103 0 150.5 49.5t47.5 156.5v752h138v-752q0 -162 -86.5 -247.5t-249.5 -85.5q-162 0 -248 85.5t-86 247.5zM297 1217l362 206l74 -129l-381 -168z" />
<glyph unicode="&#xfb;" d="M166 315v752h137v-752q0 -107 47.5 -156.5t149.5 -49.5q103 0 150.5 49.5t47.5 156.5v752h138v-752q0 -162 -86.5 -247.5t-249.5 -85.5q-162 0 -248 85.5t-86 247.5zM195 1202l309 209l309 -209l-49 -74l-260 127l-260 -127z" />
<glyph unicode="&#xfc;" d="M166 315v752h137v-752q0 -107 47.5 -156.5t149.5 -49.5q103 0 150.5 49.5t47.5 156.5v752h138v-752q0 -162 -86.5 -247.5t-249.5 -85.5q-162 0 -248 85.5t-86 247.5zM215 1266q0 56 27.5 92.5t70.5 36.5q41 0 69 -37t28 -92t-28 -92t-69 -37q-43 0 -70.5 36.5t-27.5 92.5 zM592 1266q0 56 27.5 92.5t70.5 36.5q41 0 68.5 -37t27.5 -92t-27.5 -92t-68.5 -37q-43 0 -70.5 36.5t-27.5 92.5z" />
<glyph unicode="&#xfd;" d="M86 1026l129 68l285 -549l282 549l129 -68l-344 -614v-412h-137v412zM297 1217l362 206l74 -129l-383 -168z" />
<glyph unicode="&#xfe;" d="M217 0v1067h137v-137h174q101 0 148.5 -10.5t97.5 -42.5q55 -37 87 -100.5t32 -137.5q0 -140 -85 -228.5t-218 -88.5h-236v-322h-137zM354 444h172q118 0 172 46.5t54 146.5q0 88 -55 129t-171 41h-172v-363z" />
<glyph unicode="&#xff;" d="M86 1026l129 68l285 -549l282 549l129 -68l-344 -614v-412h-137v412zM213 1266q0 56 27.5 92.5t70.5 36.5q41 0 69 -37t28 -92t-28 -92t-69 -37q-43 0 -70.5 36.5t-27.5 92.5zM590 1266q0 56 27.5 92.5t70.5 36.5q41 0 68.5 -37t27.5 -92t-27.5 -92t-68.5 -37 q-43 0 -70.5 36.5t-27.5 92.5z" />
<glyph unicode="&#x152;" d="M33 686q0 198 23.5 328.5t74.5 216.5q43 71 121 115.5t160 44.5q71 0 125 -25h442v-123h-324v-450h299v-123h-299v-547h324v-123h-451q-49 -16 -106 -16q-89 0 -168 43t-123 116q-51 88 -74.5 217.5t-23.5 325.5zM176 686q0 -313 53.5 -443t182.5 -130q67 0 114 37v1075 q-48 37 -114 37q-129 0 -182.5 -130.5t-53.5 -445.5z" />
<glyph unicode="&#x153;" d="M8 535q0 258 101 404t278 146q69 0 119 -18h485v-123h-362v-319h297v-123h-297v-379h362v-123h-485q-50 -18 -119 -18q-178 0 -278.5 146.5t-100.5 406.5zM152 535q0 -206 60 -315t175 -109q59 0 105 28v789q-46 28 -105 28q-115 0 -175 -108t-60 -313z" />
<glyph unicode="&#x178;" d="M78 1339l127 52l297 -693l295 693l127 -52l-355 -800v-539h-137v539zM215 1563q0 56 27.5 92.5t70.5 36.5q41 0 69 -37t28 -92t-28 -92t-69 -37q-43 0 -70.5 36.5t-27.5 92.5zM592 1563q0 56 27.5 92.5t70.5 36.5q41 0 68.5 -37t27.5 -92t-27.5 -92t-68.5 -37 q-43 0 -70.5 36.5t-27.5 92.5z" />
<glyph unicode="&#x2c6;" d="M193 1202l309 209l309 -209l-49 -74l-260 127l-260 -127z" />
<glyph unicode="&#x2dc;" d="M154 1126q53 133 99 182.5t118 49.5q59 0 131 -53l49 -37q55 -41 86 -41q34 0 53.5 28t42.5 111l117 -35q-41 -136 -85.5 -186.5t-119.5 -50.5q-71 0 -127 43l-69 53q-47 35 -78 35q-32 0 -53.5 -28.5t-53.5 -115.5z" />
<glyph unicode="&#x2000;" horiz-adv-x="887" />
<glyph unicode="&#x2001;" horiz-adv-x="1774" />
<glyph unicode="&#x2002;" horiz-adv-x="887" />
<glyph unicode="&#x2003;" horiz-adv-x="1774" />
<glyph unicode="&#x2004;" horiz-adv-x="591" />
<glyph unicode="&#x2005;" horiz-adv-x="443" />
<glyph unicode="&#x2006;" horiz-adv-x="295" />
<glyph unicode="&#x2007;" horiz-adv-x="295" />
<glyph unicode="&#x2008;" horiz-adv-x="221" />
<glyph unicode="&#x2009;" horiz-adv-x="354" />
<glyph unicode="&#x200a;" horiz-adv-x="98" />
<glyph unicode="&#x2010;" d="M272 465v137h455v-137h-455z" />
<glyph unicode="&#x2011;" d="M272 465v137h455v-137h-455z" />
<glyph unicode="&#x2012;" d="M272 465v137h455v-137h-455z" />
<glyph unicode="&#x2013;" d="M45 465v137h909v-137h-909z" />
<glyph unicode="&#x2014;" d="M-115 465v137h1229v-137h-1229z" />
<glyph unicode="&#x2018;" d="M328 963v65q0 112 58.5 204t168.5 154l61 -102q-63 -41 -81.5 -89t-18.5 -167v-65h-188z" />
<glyph unicode="&#x2019;" d="M328 1044q63 43 81.5 90t18.5 166v66h188v-66q0 -112 -59 -205t-168 -153z" />
<glyph unicode="&#x201a;" d="M369 -18q63 43 81.5 90t18.5 166v65h188v-65q0 -112 -59 -205.5t-168 -153.5z" />
<glyph unicode="&#x201c;" d="M178 963v65q0 112 59 204t169 154l61 -102q-63 -41 -81.5 -89t-18.5 -167v-65h-189zM561 963v65q0 112 58.5 204t168.5 154l62 -102q-63 -41 -81.5 -89t-18.5 -167v-65h-189z" />
<glyph unicode="&#x201d;" d="M150 1044q63 43 81.5 90t18.5 166v66h188v-66q0 -112 -59 -205t-168 -153zM532 1044q63 41 82 89.5t19 166.5v66h188v-66q0 -112 -59 -205t-168 -153z" />
<glyph unicode="&#x201e;" d="M150 -18q63 43 81.5 90t18.5 166v65h188v-65q0 -112 -59 -205.5t-168 -153.5zM532 -18q63 41 82 89.5t19 166.5v65h188v-65q0 -112 -59 -205.5t-168 -153.5z" />
<glyph unicode="&#x2022;" d="M219 694q0 117 83.5 200t203.5 83q116 0 198 -83t82 -200t-82.5 -200.5t-197.5 -83.5q-120 0 -203.5 82.5t-83.5 201.5z" />
<glyph unicode="&#x2026;" d="M29 0v182h182v-182h-182zM408 0v182h182v-182h-182zM786 0v182h183v-182h-183z" />
<glyph unicode="&#x202f;" horiz-adv-x="354" />
<glyph unicode="&#x2039;" d="M176 676l518 491l99 -100l-420 -391l420 -393l-99 -103z" />
<glyph unicode="&#x203a;" d="M205 283l420 393l-420 391l96 100l520 -491l-520 -496z" />
<glyph unicode="&#x205f;" horiz-adv-x="443" />
<glyph unicode="&#x20ac;" d="M10 506l51 123h119v106h-170l51 123h127q53 528 404 528q108 0 181 -49t151 -174l-115 -69q-56 92 -103 127.5t-116 35.5q-218 0 -258 -399h461l-52 -123h-417v-106h374l-53 -123h-313q40 -395 256 -395q129 0 243 172l113 -78q-86 -123 -165.5 -173t-188.5 -50 q-350 0 -402 524h-178z" />
<glyph unicode="&#x2122;" d="M-70 1251v115h678l137 -365l132 365h167v-684h-159v442l-119 -327h-102l-107 286v-401h-115v569h-182v-569h-160v569h-170z" />
<glyph unicode="&#xe000;" horiz-adv-x="1116" d="M0 0v1116h1116v-1116h-1116z" />
<glyph unicode="&#xfb01;" d="M70 0v1067h921v-123h-149v-821h149v-123h-436v123h150v821h-498v-319h311v-123h-311v-502h-137z" />
<glyph unicode="&#xfb02;" d="M43 0v1067h723v-944h330v-123h-467v944h-449v-319h312v-123h-312v-502h-137z" />
</font>
</defs>
</svg>
